<svg id="svg" version="1.1" xmlns="http://www.w3.org/2000/svg" xmlns:xlink="http://www.w3.org/1999/xlink" width="400" height="400" viewBox="0, 0, 400,400"><g id="svgg"><path id="path0" d="M136.200 104.400 C 137.506 105.720,138.665 106.800,138.775 106.800 C 138.885 106.800,137.906 105.720,136.600 104.400 C 135.294 103.080,134.135 102.000,134.025 102.000 C 133.915 102.000,134.894 103.080,136.200 104.400 M208.532 103.202 C 202.757 104.047,201.375 106.344,194.690 126.200 C 194.023 128.180,192.880 131.340,192.150 133.222 C 191.420 135.103,190.446 137.893,189.986 139.422 C 189.525 140.950,188.904 142.740,188.605 143.400 C 188.306 144.060,187.436 146.400,186.673 148.600 C 185.910 150.800,184.167 155.660,182.800 159.400 C 181.434 163.140,179.924 167.460,179.444 169.000 C 178.965 170.540,177.918 173.510,177.117 175.600 C 176.317 177.690,175.207 180.750,174.652 182.400 C 174.096 184.050,173.066 187.110,172.362 189.200 C 171.658 191.290,170.735 193.759,170.311 194.688 C 169.887 195.616,168.766 198.676,167.819 201.488 C 165.329 208.882,163.971 212.754,163.151 214.800 C 152.787 240.667,153.585 244.237,170.487 247.629 C 178.598 249.257,183.517 249.601,186.600 248.758 C 190.139 247.790,190.719 246.823,205.173 217.783 C 260.066 107.497,255.200 117.636,255.200 113.530 C 255.200 106.150,252.142 104.973,230.400 103.988 C 225.010 103.744,218.826 103.377,216.658 103.172 C 212.293 102.760,211.535 102.763,208.532 103.202 M321.257 111.370 C 318.504 112.272,314.969 116.479,312.001 122.385 C 311.287 123.807,309.845 126.237,308.797 127.785 C 307.750 129.333,306.396 131.590,305.789 132.800 C 305.183 134.010,304.279 135.540,303.782 136.200 C 303.284 136.860,301.859 139.271,300.615 141.558 C 299.370 143.845,297.937 146.275,297.430 146.958 C 296.923 147.641,295.822 149.550,294.983 151.200 C 294.144 152.850,292.879 155.029,292.171 156.043 C 291.463 157.057,290.111 159.307,289.166 161.043 C 288.222 162.779,287.048 164.740,286.557 165.400 C 286.065 166.060,284.991 167.860,284.169 169.400 C 283.347 170.940,281.894 173.419,280.939 174.909 C 279.985 176.400,278.729 178.556,278.149 179.701 C 277.568 180.846,276.238 183.047,275.192 184.592 C 274.147 186.136,272.717 188.547,272.015 189.950 C 271.313 191.352,270.053 193.512,269.215 194.750 C 268.378 195.987,267.197 197.990,266.591 199.200 C 265.985 200.410,264.820 202.390,264.003 203.600 C 263.186 204.810,261.840 207.057,261.014 208.593 C 260.187 210.129,259.016 212.109,258.413 212.993 C 257.810 213.877,256.537 216.040,255.585 217.800 C 254.633 219.560,253.150 222.050,252.290 223.333 C 249.526 227.454,248.662 229.802,248.472 233.699 C 248.139 240.558,248.922 241.314,261.686 246.469 C 272.339 250.771,277.451 251.211,281.036 248.133 L 282.200 247.134 281.000 247.922 C 278.341 249.667,273.809 250.093,269.973 248.957 C 266.842 248.030,254.671 243.035,252.631 241.839 C 247.783 238.998,247.923 231.536,252.969 223.795 C 254.202 221.904,255.773 219.241,256.460 217.878 C 257.147 216.515,258.380 214.410,259.198 213.200 C 260.017 211.990,261.094 210.190,261.591 209.200 C 262.088 208.210,263.179 206.387,264.016 205.150 C 264.853 203.912,266.113 201.752,266.815 200.350 C 267.517 198.947,268.757 196.810,269.571 195.600 C 270.385 194.390,271.835 191.960,272.794 190.200 C 273.753 188.440,275.199 186.010,276.006 184.800 C 276.814 183.590,277.962 181.621,278.559 180.424 C 279.155 179.228,280.280 177.381,281.058 176.321 C 281.837 175.260,283.285 172.819,284.278 170.896 C 285.270 168.973,286.490 166.858,286.988 166.196 C 287.487 165.533,288.838 163.283,289.991 161.196 C 291.143 159.108,292.492 156.860,292.987 156.200 C 293.482 155.540,294.478 153.830,295.199 152.400 C 295.920 150.970,297.180 148.810,298.000 147.600 C 298.820 146.390,300.080 144.230,300.800 142.800 C 301.520 141.370,302.787 139.201,303.615 137.980 C 304.444 136.759,305.785 134.509,306.596 132.980 C 307.406 131.451,308.677 129.354,309.420 128.320 C 310.162 127.286,311.428 125.126,312.233 123.520 C 318.049 111.918,321.860 109.857,333.200 112.186 C 333.750 112.299,333.390 112.113,332.400 111.772 C 329.823 110.884,323.442 110.654,321.257 111.370 M143.478 114.195 C 143.844 114.962,144.214 115.519,144.301 115.432 C 144.484 115.249,143.270 112.800,142.996 112.800 C 142.895 112.800,143.112 113.428,143.478 114.195 M341.762 114.446 C 343.500 114.866,344.998 115.135,345.090 115.044 C 345.285 114.849,339.889 113.581,339.121 113.641 C 338.834 113.664,340.023 114.026,341.762 114.446 M346.200 115.600 C 346.640 115.789,347.270 115.944,347.600 115.944 C 347.978 115.944,347.904 115.817,347.400 115.600 C 346.960 115.411,346.330 115.256,346.000 115.256 C 345.622 115.256,345.696 115.383,346.200 115.600 M357.200 118.400 C 358.568 118.838,359.619 118.838,358.600 118.400 C 358.160 118.211,357.440 118.062,357.000 118.068 C 356.357 118.077,356.396 118.143,357.200 118.400 M80.300 119.429 C 78.749 120.270,78.925 120.561,80.500 119.759 C 82.008 118.993,82.275 118.794,81.767 118.816 C 81.565 118.825,80.905 119.101,80.300 119.429 M91.200 119.725 C 91.200 119.794,91.785 120.379,92.500 121.025 L 93.800 122.200 92.625 120.900 C 91.530 119.688,91.200 119.416,91.200 119.725 M76.800 122.200 C 75.828 123.190,75.123 124.000,75.233 124.000 C 75.343 124.000,76.228 123.190,77.200 122.200 C 78.172 121.210,78.877 120.400,78.767 120.400 C 78.657 120.400,77.772 121.210,76.800 122.200 M366.052 121.202 C 369.316 122.927,370.192 124.858,369.911 129.706 C 369.783 131.923,369.839 132.648,370.088 131.980 C 371.789 127.406,368.661 120.265,365.022 120.418 C 364.790 120.427,365.253 120.781,366.052 121.202 M146.880 123.000 C 146.880 123.440,147.024 124.250,147.200 124.800 C 147.454 125.592,147.520 125.633,147.520 125.000 C 147.520 124.560,147.376 123.750,147.200 123.200 C 146.946 122.408,146.880 122.367,146.880 123.000 M32.649 129.015 C 32.512 129.373,32.415 129.966,32.434 130.333 C 32.453 130.700,32.627 130.469,32.821 129.820 C 33.198 128.558,33.065 127.933,32.649 129.015 M148.109 131.200 C 148.109 132.190,148.187 132.595,148.282 132.100 C 148.378 131.605,148.378 130.795,148.282 130.300 C 148.187 129.805,148.109 130.210,148.109 131.200 M72.447 132.633 C 72.473 133.495,72.639 134.740,72.815 135.400 C 73.018 136.156,73.054 135.638,72.915 134.000 C 72.667 131.086,72.375 130.231,72.447 132.633 M31.469 133.956 C 31.321 134.695,31.220 135.683,31.244 136.150 C 31.268 136.618,31.447 136.190,31.642 135.200 C 31.837 134.210,31.938 133.223,31.867 133.006 C 31.796 132.790,31.617 133.217,31.469 133.956 M368.485 134.500 C 368.049 135.215,367.116 136.565,366.411 137.500 C 365.707 138.435,365.215 139.200,365.317 139.200 C 365.566 139.200,368.542 135.239,369.149 134.100 C 369.879 132.729,369.385 133.027,368.485 134.500 M148.120 137.200 C 148.120 138.410,148.195 138.905,148.287 138.300 C 148.378 137.695,148.378 136.705,148.287 136.100 C 148.195 135.495,148.120 135.990,148.120 137.200 M364.159 140.500 C 362.407 142.521,361.887 143.200,362.090 143.200 C 362.207 143.200,362.967 142.390,363.779 141.400 C 365.281 139.566,365.579 138.863,364.159 140.500 M30.914 142.200 C 30.917 143.300,30.995 143.703,31.087 143.095 C 31.179 142.486,31.177 141.586,31.082 141.095 C 30.987 140.603,30.911 141.100,30.914 142.200 M77.400 144.800 C 78.259 145.680,79.052 146.400,79.162 146.400 C 79.272 146.400,78.659 145.680,77.800 144.800 C 76.941 143.920,76.148 143.200,76.038 143.200 C 75.928 143.200,76.541 143.920,77.400 144.800 M359.823 146.101 C 357.553 148.970,356.814 150.007,357.473 149.400 C 358.001 148.913,361.317 144.797,361.742 144.100 C 362.432 142.969,361.685 143.748,359.823 146.101 M31.287 147.200 C 31.283 147.750,31.424 148.650,31.600 149.200 C 32.031 150.544,32.031 149.092,31.600 147.400 C 31.326 146.322,31.294 146.302,31.287 147.200 M83.441 151.338 C 84.077 153.206,84.083 157.094,83.453 159.000 C 83.307 159.440,83.453 159.260,83.776 158.600 C 84.799 156.512,84.416 151.217,83.141 149.815 C 82.948 149.604,83.083 150.289,83.441 151.338 M352.739 155.300 C 350.491 158.114,347.961 161.600,348.167 161.600 C 348.273 161.600,349.719 159.800,351.380 157.600 C 354.413 153.584,355.277 152.121,352.739 155.300 M344.761 165.700 C 341.283 170.123,340.617 171.062,342.120 169.422 C 343.638 167.767,348.098 162.000,347.861 162.000 C 347.756 162.000,346.362 163.665,344.761 165.700 M39.600 164.600 C 40.795 165.810,41.863 166.800,41.973 166.800 C 42.083 166.800,41.195 165.810,40.000 164.600 C 38.805 163.390,37.737 162.400,37.627 162.400 C 37.517 162.400,38.405 163.390,39.600 164.600 M132.778 171.900 L 131.400 173.400 132.900 172.022 C 133.725 171.263,134.400 170.588,134.400 170.522 C 134.400 170.216,134.062 170.504,132.778 171.900 M338.770 173.500 C 337.821 174.765,337.313 175.583,337.641 175.318 C 338.315 174.775,340.946 171.200,340.673 171.200 C 340.576 171.200,339.719 172.235,338.770 173.500 M56.900 171.887 C 57.505 171.978,58.495 171.978,59.100 171.887 C 59.705 171.795,59.210 171.720,58.000 171.720 C 56.790 171.720,56.295 171.795,56.900 171.887 M76.181 174.900 L 74.600 176.600 76.300 175.019 C 77.881 173.548,78.184 173.200,77.881 173.200 C 77.816 173.200,77.051 173.965,76.181 174.900 M125.800 178.676 C 123.386 180.968,123.190 181.219,125.000 179.697 C 127.287 177.776,129.533 175.579,129.170 175.619 C 129.076 175.629,127.560 177.004,125.800 178.676 M333.800 180.000 C 332.784 181.320,332.043 182.400,332.153 182.400 C 332.263 182.400,333.184 181.320,334.200 180.000 C 335.216 178.680,335.957 177.600,335.847 177.600 C 335.737 177.600,334.816 178.680,333.800 180.000 M330.359 184.500 C 329.640 185.435,328.950 186.389,328.826 186.619 C 328.507 187.210,330.279 185.221,331.248 183.900 C 332.548 182.127,331.792 182.638,330.359 184.500 M66.975 185.700 L 65.800 187.000 67.100 185.825 C 68.312 184.730,68.584 184.400,68.275 184.400 C 68.206 184.400,67.621 184.985,66.975 185.700 M326.159 190.100 C 324.407 192.121,323.887 192.800,324.090 192.800 C 324.207 192.800,324.967 191.990,325.779 191.000 C 327.281 189.166,327.579 188.463,326.159 190.100 M107.775 194.100 L 106.600 195.400 107.900 194.225 C 109.112 193.130,109.384 192.800,109.075 192.800 C 109.006 192.800,108.421 193.385,107.775 194.100 M322.400 194.800 C 321.703 195.680,321.223 196.400,321.333 196.400 C 321.443 196.400,322.103 195.680,322.800 194.800 C 323.497 193.920,323.977 193.200,323.867 193.200 C 323.757 193.200,323.097 193.920,322.400 194.800 M318.800 199.600 C 318.103 200.480,317.623 201.200,317.733 201.200 C 317.843 201.200,318.503 200.480,319.200 199.600 C 319.897 198.720,320.377 198.000,320.267 198.000 C 320.157 198.000,319.497 198.720,318.800 199.600 M100.181 200.900 L 98.600 202.600 100.300 201.019 C 101.235 200.149,102.000 199.384,102.000 199.319 C 102.000 199.016,101.652 199.319,100.181 200.900 M314.942 204.700 C 311.292 209.295,305.603 216.846,305.956 216.627 C 306.283 216.425,313.575 207.123,315.923 203.915 C 316.894 202.587,316.143 203.188,314.942 204.700 M300.938 222.898 C 298.034 226.859,298.162 226.661,298.863 226.098 C 299.560 225.537,302.958 220.800,302.663 220.800 C 302.560 220.800,301.783 221.744,300.938 222.898 M295.848 229.519 C 294.774 230.945,294.073 232.002,294.290 231.868 C 294.859 231.517,298.143 227.204,297.956 227.052 C 297.870 226.983,296.922 228.092,295.848 229.519 M46.109 231.200 C 46.109 232.190,46.187 232.595,46.282 232.100 C 46.378 231.605,46.378 230.795,46.282 230.300 C 46.187 229.805,46.109 230.210,46.109 231.200 M249.600 234.243 C 249.600 235.283,249.708 236.025,249.840 235.894 C 250.204 235.530,250.260 232.761,249.908 232.543 C 249.739 232.439,249.600 233.203,249.600 234.243 M291.544 235.100 C 290.393 236.489,289.906 237.200,290.104 237.200 C 290.214 237.200,290.786 236.570,291.373 235.800 C 292.463 234.371,292.595 233.832,291.544 235.100 M285.468 243.107 C 284.698 244.156,283.693 245.354,283.234 245.769 C 282.775 246.184,282.400 246.677,282.400 246.863 C 282.400 247.253,284.530 244.904,286.175 242.700 C 286.791 241.875,287.199 241.200,287.082 241.200 C 286.964 241.200,286.238 242.058,285.468 243.107 M46.812 242.306 C 46.805 242.584,47.385 243.402,48.100 244.124 C 48.815 244.846,49.019 244.979,48.554 244.419 C 48.088 243.858,47.508 243.040,47.266 242.600 C 47.023 242.160,46.819 242.028,46.812 242.306 M238.307 247.490 C 239.026 247.579,240.106 247.577,240.707 247.486 C 241.308 247.395,240.720 247.322,239.400 247.324 C 238.080 247.326,237.588 247.401,238.307 247.490 M244.700 247.482 C 245.195 247.578,246.005 247.578,246.500 247.482 C 246.995 247.387,246.590 247.309,245.600 247.309 C 244.610 247.309,244.205 247.387,244.700 247.482 M232.800 248.348 C 220.837 252.183,213.200 262.652,213.200 275.217 C 213.200 292.757,227.612 306.187,244.200 304.104 C 246.907 303.764,246.840 303.752,242.200 303.742 C 226.082 303.705,214.971 292.959,214.113 276.575 C 213.411 263.181,221.859 251.604,234.800 248.227 C 236.010 247.911,236.550 247.650,236.000 247.648 C 235.450 247.645,234.010 247.960,232.800 248.348 M258.800 251.877 C 259.350 252.269,260.880 253.576,262.200 254.782 L 264.600 256.974 262.497 254.772 C 261.341 253.560,259.811 252.253,259.097 251.867 C 257.847 251.191,257.836 251.191,258.800 251.877 M150.407 253.395 C 127.274 259.518,121.659 291.076,141.370 304.191 C 161.077 317.304,185.830 304.029,185.732 280.400 C 185.653 261.304,168.903 248.499,150.407 253.395 M36.795 262.300 C 35.875 263.345,34.950 264.560,34.739 265.000 C 34.528 265.440,34.771 265.260,35.277 264.600 C 35.784 263.940,36.805 262.725,37.546 261.900 C 38.287 261.075,38.797 260.400,38.681 260.400 C 38.564 260.400,37.715 261.255,36.795 262.300 M80.618 262.409 C 81.268 263.185,82.123 264.265,82.517 264.809 C 83.208 265.763,83.208 265.751,82.521 264.482 C 82.128 263.757,81.273 262.677,80.621 262.082 L 79.436 261.000 80.618 262.409 M33.180 267.639 C 32.720 268.540,32.413 269.346,32.497 269.430 C 32.581 269.514,33.041 268.776,33.519 267.791 C 34.609 265.547,34.315 265.415,33.180 267.639 M214.400 275.600 C 214.400 277.433,214.477 278.857,214.570 278.763 C 214.859 278.475,214.944 272.811,214.664 272.531 C 214.519 272.385,214.400 273.767,214.400 275.600 M30.086 277.331 C 29.433 280.143,29.483 283.412,30.212 285.600 C 30.543 286.590,30.708 286.860,30.580 286.200 C 30.000 283.210,29.932 279.751,30.414 277.741 C 30.697 276.561,30.849 275.515,30.751 275.417 C 30.653 275.320,30.354 276.181,30.086 277.331 M270.493 279.200 C 270.493 279.970,270.575 280.285,270.676 279.900 C 270.776 279.515,270.776 278.885,270.676 278.500 C 270.575 278.115,270.493 278.430,270.493 279.200 M262.388 295.900 L 259.800 298.600 262.500 296.012 C 263.985 294.588,265.200 293.373,265.200 293.312 C 265.200 293.017,264.793 293.392,262.388 295.900 M35.916 299.400 C 36.149 299.840,37.293 301.100,38.458 302.200 L 40.576 304.200 38.208 301.600 C 36.906 300.170,35.762 298.910,35.666 298.800 C 35.570 298.690,35.682 298.960,35.916 299.400 M78.987 302.100 L 76.600 304.600 79.100 302.213 C 81.422 299.995,81.783 299.600,81.487 299.600 C 81.426 299.600,80.301 300.725,78.987 302.100 M256.300 300.229 C 254.805 301.040,254.896 301.378,256.400 300.600 C 257.060 300.259,257.600 299.894,257.600 299.790 C 257.600 299.532,257.557 299.547,256.300 300.229 M252.400 302.020 C 251.410 302.425,250.870 302.762,251.200 302.768 C 251.530 302.774,252.520 302.438,253.400 302.022 C 255.443 301.055,254.761 301.053,252.400 302.020 M55.500 309.882 C 55.995 309.978,56.805 309.978,57.300 309.882 C 57.795 309.787,57.390 309.709,56.400 309.709 C 55.410 309.709,55.005 309.787,55.500 309.882 M60.700 309.882 C 61.195 309.978,62.005 309.978,62.500 309.882 C 62.995 309.787,62.590 309.709,61.600 309.709 C 60.610 309.709,60.205 309.787,60.700 309.882 " stroke="none" fill="#04b2d4" fill-rule="evenodd"></path><path id="path1" d="M322.498 111.565 C 319.493 112.337,315.518 116.966,312.233 123.520 C 311.428 125.126,310.162 127.286,309.420 128.320 C 308.677 129.354,307.406 131.451,306.596 132.980 C 305.785 134.509,304.444 136.759,303.615 137.980 C 302.787 139.201,301.520 141.370,300.800 142.800 C 300.080 144.230,298.820 146.390,298.000 147.600 C 297.180 148.810,295.920 150.970,295.199 152.400 C 294.478 153.830,293.482 155.540,292.987 156.200 C 292.492 156.860,291.143 159.108,289.991 161.196 C 288.838 163.283,287.487 165.533,286.988 166.196 C 286.490 166.858,285.270 168.973,284.278 170.896 C 283.285 172.819,281.837 175.260,281.058 176.321 C 280.280 177.381,279.155 179.228,278.559 180.424 C 277.962 181.621,276.814 183.590,276.006 184.800 C 275.199 186.010,273.753 188.440,272.794 190.200 C 271.835 191.960,270.385 194.390,269.571 195.600 C 268.757 196.810,267.517 198.947,266.815 200.350 C 266.113 201.752,264.853 203.912,264.016 205.150 C 263.179 206.387,262.088 208.210,261.591 209.200 C 261.094 210.190,260.017 211.990,259.198 213.200 C 258.380 214.410,257.147 216.515,256.460 217.878 C 255.773 219.241,254.202 221.904,252.969 223.795 C 249.120 229.700,248.121 234.912,250.050 239.017 C 251.123 241.299,252.380 242.048,261.087 245.588 C 277.815 252.391,278.475 252.172,291.029 235.645 C 296.830 228.007,303.066 219.857,307.014 214.754 C 312.002 208.305,315.040 204.344,320.427 197.263 C 323.162 193.668,327.424 188.088,329.898 184.863 C 332.371 181.639,336.781 175.888,339.698 172.085 C 342.614 168.282,345.870 164.052,346.934 162.685 C 347.997 161.318,350.142 158.490,351.700 156.400 C 353.258 154.310,355.132 151.880,355.865 151.000 C 356.597 150.120,358.502 147.670,360.098 145.556 C 361.694 143.442,364.117 140.269,365.481 138.504 C 372.694 129.180,371.702 122.768,362.600 119.874 C 348.288 115.324,325.914 110.688,322.498 111.565 M250.148 234.194 C 250.046 236.379,249.600 236.419,249.600 234.243 C 249.600 233.203,249.739 232.439,249.908 232.543 C 250.078 232.648,250.186 233.391,250.148 234.194 M238.763 247.596 C 208.282 250.586,205.085 295.328,234.800 303.055 C 247.107 306.255,261.937 299.952,267.034 289.356 C 277.594 267.401,262.602 245.257,238.763 247.596 M269.895 277.287 C 269.814 278.449,269.747 277.600,269.746 275.400 C 269.745 273.200,269.811 272.249,269.893 273.287 C 269.976 274.324,269.976 276.124,269.895 277.287 M214.834 275.694 C 214.704 279.716,214.400 279.650,214.400 275.600 C 214.400 273.767,214.519 272.385,214.664 272.531 C 214.809 272.676,214.886 274.099,214.834 275.694 " stroke="none" fill="#da42ea" fill-rule="evenodd"></path><path id="path2" d="M83.800 90.787 C 53.674 94.331,31.200 116.028,31.200 141.570 C 31.200 168.283,57.004 180.598,78.787 164.281 C 84.895 159.706,86.014 151.823,81.113 147.887 C 75.681 143.526,73.922 140.954,72.906 135.891 C 69.841 120.607,88.973 110.933,95.057 124.690 C 95.954 126.719,96.000 127.250,96.000 135.569 C 96.000 147.654,95.292 149.806,87.739 160.662 C 83.987 166.055,82.957 167.372,78.105 172.979 C 54.394 200.377,47.397 213.744,46.161 234.000 C 45.485 245.079,47.981 246.953,63.114 246.733 C 76.048 246.544,78.325 244.818,78.386 235.150 C 78.394 233.913,78.670 232.135,79.000 231.200 C 79.330 230.265,79.600 229.144,79.600 228.709 C 79.600 227.685,83.074 220.751,85.320 217.291 C 89.147 211.397,92.833 207.330,100.410 200.643 C 103.374 198.026,106.700 195.045,107.800 194.017 C 108.900 192.990,111.240 191.000,113.000 189.595 C 116.804 186.558,120.587 183.309,127.200 177.400 C 158.521 149.415,154.106 105.608,118.800 94.051 C 109.423 90.981,94.209 89.562,83.800 90.787 M51.200 253.822 C 42.197 255.756,33.729 263.992,31.484 273.000 C 30.202 278.142,30.000 279.286,30.000 281.400 C 30.000 285.399,31.651 291.414,33.899 295.600 C 44.949 316.183,78.136 313.870,85.565 292.000 C 93.378 269.002,75.094 248.690,51.200 253.822 M269.746 275.400 C 269.747 277.600,269.814 278.449,269.895 277.287 C 269.976 276.124,269.976 274.324,269.893 273.287 C 269.811 272.249,269.745 273.200,269.746 275.400 M270.534 275.200 C 270.534 276.850,270.605 277.525,270.691 276.700 C 270.778 275.875,270.778 274.525,270.691 273.700 C 270.605 272.875,270.534 273.550,270.534 275.200 M269.280 280.200 C 269.280 282.176,269.827 283.103,270.127 281.636 C 270.280 280.886,270.314 280.181,270.203 280.069 C 270.091 279.958,269.982 280.212,269.960 280.633 C 269.929 281.230,269.849 281.179,269.600 280.400 C 269.346 279.608,269.280 279.567,269.280 280.200 " stroke="none" fill="#fc5624" fill-rule="evenodd"></path></g></svg>